<?xml version="1.0" encoding="UTF-8" standalone="no"?>
<!-- Created with Inkscape (http://www.inkscape.org/) -->

<svg
   xmlns:dc="http://purl.org/dc/elements/1.1/"
   xmlns:cc="http://creativecommons.org/ns#"
   xmlns:rdf="http://www.w3.org/1999/02/22-rdf-syntax-ns#"
   xmlns:svg="http://www.w3.org/2000/svg"
   xmlns="http://www.w3.org/2000/svg"
   xmlns:xlink="http://www.w3.org/1999/xlink"
   xmlns:sodipodi="http://sodipodi.sourceforge.net/DTD/sodipodi-0.dtd"
   xmlns:inkscape="http://www.inkscape.org/namespaces/inkscape"
   width="744.09448"
   height="1052.3622"
   id="svg2"
   version="1.1"
   inkscape:version="0.47 r22583"
   sodipodi:docname="shave_grade_meh.svg"
   inkscape:export-filename="C:\Documents and Settings\andres.perez\My Dropbox\Public\hokiegeek.net\shaving\img\shave_grade_meh.png"
   inkscape:export-xdpi="5.6100001"
   inkscape:export-ydpi="5.6100001">
  <defs
     id="defs4">
    <linearGradient
       id="linearGradient3623">
      <stop
         style="stop-color:#e66666;stop-opacity:1;"
         offset="0"
         id="stop3625" />
      <stop
         style="stop-color:#cd6666;stop-opacity:0.20353982;"
         offset="1"
         id="stop3627" />
    </linearGradient>
    <inkscape:perspective
       sodipodi:type="inkscape:persp3d"
       inkscape:vp_x="0 : 526.18109 : 1"
       inkscape:vp_y="0 : 1000 : 0"
       inkscape:vp_z="744.09448 : 526.18109 : 1"
       inkscape:persp3d-origin="372.04724 : 350.78739 : 1"
       id="perspective10" />
    <radialGradient
       inkscape:collect="always"
       xlink:href="#linearGradient3623"
       id="radialGradient3629"
       cx="128.70993"
       cy="461.58411"
       fx="128.70993"
       fy="461.58411"
       r="43.139042"
       gradientTransform="matrix(-0.040438,-2.3520474,2.3451692,-0.02783765,-933.71902,818.37005)"
       gradientUnits="userSpaceOnUse" />
    <radialGradient
       inkscape:collect="always"
       xlink:href="#linearGradient3623"
       id="radialGradient3633"
       gradientUnits="userSpaceOnUse"
       gradientTransform="matrix(-0.01639341,-1.147541,0.95072263,-0.01358172,-308.01853,615.11419)"
       cx="128.70993"
       cy="461.58411"
       fx="128.70993"
       fy="461.58411"
       r="43.139042" />
    <radialGradient
       inkscape:collect="always"
       xlink:href="#linearGradient3623"
       id="radialGradient3637"
       gradientUnits="userSpaceOnUse"
       gradientTransform="matrix(-0.01639341,-1.147541,0.95072263,-0.01358172,-308.01853,615.11419)"
       cx="128.70993"
       cy="461.58411"
       fx="128.70993"
       fy="461.58411"
       r="43.139042" />
    <filter
       inkscape:collect="always"
       id="filter3643"
       x="-0.54891941"
       width="2.0978388"
       y="-0.57731181"
       height="2.1546236">
      <feGaussianBlur
         inkscape:collect="always"
         stdDeviation="19.733215"
         id="feGaussianBlur3645" />
    </filter>
    <filter
       inkscape:collect="always"
       id="filter3647"
       x="-0.36804123"
       width="1.7360825"
       y="-0.38707786"
       height="1.7741557">
      <feGaussianBlur
         inkscape:collect="always"
         stdDeviation="13.230788"
         id="feGaussianBlur3649" />
    </filter>
    <filter
       inkscape:collect="always"
       id="filter3651"
       x="-0.38011232"
       width="1.7602246"
       y="-0.39977332"
       height="1.7995466">
      <feGaussianBlur
         inkscape:collect="always"
         stdDeviation="13.664735"
         id="feGaussianBlur3653" />
    </filter>
    <radialGradient
       inkscape:collect="always"
       xlink:href="#linearGradient3623"
       id="radialGradient4347"
       gradientUnits="userSpaceOnUse"
       gradientTransform="matrix(-0.01639341,-1.147541,0.95072263,-0.01358172,-308.01853,615.11419)"
       cx="128.70993"
       cy="461.58411"
       fx="128.70993"
       fy="461.58411"
       r="43.139042" />
    <inkscape:perspective
       id="perspective3905"
       inkscape:persp3d-origin="0.5 : 0.33333333 : 1"
       inkscape:vp_z="1 : 0.5 : 1"
       inkscape:vp_y="0 : 1000 : 0"
       inkscape:vp_x="0 : 0.5 : 1"
       sodipodi:type="inkscape:persp3d" />
    <filter
       color-interpolation-filters="sRGB"
       inkscape:collect="always"
       id="filter3867"
       x="-0.14417715"
       width="1.2883543"
       y="-0.31563112"
       height="1.6312622">
      <feGaussianBlur
         inkscape:collect="always"
         stdDeviation="13.902798"
         id="feGaussianBlur3869" />
    </filter>
    <inkscape:perspective
       id="perspective3946"
       inkscape:persp3d-origin="0.5 : 0.33333333 : 1"
       inkscape:vp_z="1 : 0.5 : 1"
       inkscape:vp_y="0 : 1000 : 0"
       inkscape:vp_x="0 : 0.5 : 1"
       sodipodi:type="inkscape:persp3d" />
    <linearGradient
       inkscape:collect="always"
       xlink:href="#linearGradient3724"
       id="linearGradient3730"
       x1="172.85715"
       y1="685.93359"
       x2="420"
       y2="224.50504"
       gradientUnits="userSpaceOnUse" />
    <linearGradient
       inkscape:collect="always"
       id="linearGradient3724">
      <stop
         style="stop-color:#000000;stop-opacity:1;"
         offset="0"
         id="stop3726" />
      <stop
         style="stop-color:#000000;stop-opacity:0;"
         offset="1"
         id="stop3728" />
    </linearGradient>
    <linearGradient
       y2="224.50504"
       x2="420"
       y1="685.93359"
       x1="172.85715"
       gradientUnits="userSpaceOnUse"
       id="linearGradient3955"
       xlink:href="#linearGradient3724"
       inkscape:collect="always" />
    <inkscape:perspective
       id="perspective3984"
       inkscape:persp3d-origin="0.5 : 0.33333333 : 1"
       inkscape:vp_z="1 : 0.5 : 1"
       inkscape:vp_y="0 : 1000 : 0"
       inkscape:vp_x="0 : 0.5 : 1"
       sodipodi:type="inkscape:persp3d" />
    <filter
       inkscape:collect="always"
       id="filter3732"
       color-interpolation-filters="sRGB">
      <feGaussianBlur
         inkscape:collect="always"
         stdDeviation="11.399117"
         id="feGaussianBlur3734" />
    </filter>
  </defs>
  <sodipodi:namedview
     id="base"
     pagecolor="#ffffff"
     bordercolor="#666666"
     borderopacity="1.0"
     inkscape:pageopacity="0.0"
     inkscape:pageshadow="2"
     inkscape:zoom="0.67817872"
     inkscape:cx="395.08769"
     inkscape:cy="670.81403"
     inkscape:document-units="px"
     inkscape:current-layer="layer6"
     showgrid="false"
     inkscape:window-width="1174"
     inkscape:window-height="769"
     inkscape:window-x="44"
     inkscape:window-y="0"
     inkscape:window-maximized="0"
     inkscape:snap-grids="true"
     inkscape:snap-page="false" />
  <metadata
     id="metadata7">
    <rdf:RDF>
      <cc:Work
         rdf:about="">
        <dc:format>image/svg+xml</dc:format>
        <dc:type
           rdf:resource="http://purl.org/dc/dcmitype/StillImage" />
        <dc:title></dc:title>
      </cc:Work>
    </rdf:RDF>
  </metadata>
  <g
     inkscape:groupmode="layer"
     id="layer11"
     inkscape:label="Shadow">
    <path
       inkscape:export-ydpi="6.0229449"
       inkscape:export-xdpi="6.0229449"
       inkscape:export-filename="C:\Documents and Settings\andres.perez\My Dropbox\Public\hokiegeek.net\shaving\img\path3600.png"
       transform="translate(5.1039865,0.2381814)"
       d="m 740,372.36218 a 368.57144,368.57144 0 1 1 -737.1428833,0 368.57144,368.57144 0 1 1 737.1428833,0 z"
       sodipodi:ry="368.57144"
       sodipodi:rx="368.57144"
       sodipodi:cy="372.36218"
       sodipodi:cx="371.42856"
       id="path2934"
       style="fill:#000000;fill-opacity:1;stroke:#000000;stroke-width:10;stroke-miterlimit:4;stroke-dasharray:none;display:inline;filter:url(#filter3732)"
       sodipodi:type="arc" />
  </g>
  <g
     inkscape:label="Layer 1"
     inkscape:groupmode="layer"
     id="layer1"
     style="display:inline"
     sodipodi:insensitive="true">
    <path
       sodipodi:type="arc"
       style="fill:#ffe7a2;fill-opacity:1;stroke:#000000;stroke-width:10;stroke-linecap:round;stroke-linejoin:round;stroke-miterlimit:4;stroke-dasharray:none"
       id="path3600"
       sodipodi:cx="371.42856"
       sodipodi:cy="372.36218"
       sodipodi:rx="368.57144"
       sodipodi:ry="368.57144"
       d="m 740,372.36218 a 368.57144,368.57144 0 1 1 -737.1428833,0 368.57144,368.57144 0 1 1 737.1428833,0 z"
       transform="translate(4.1349509e-8,-3.571428)"
       inkscape:export-xdpi="6.0229449"
       inkscape:export-ydpi="6.0229449"
       inkscape:export-filename="C:\Users\PerezFamily\Documents\My Dropbox\Public\bad_shave.png" />
  </g>
  <g
     inkscape:groupmode="layer"
     id="layer9"
     inkscape:label="Gradient"
     sodipodi:insensitive="true">
    <path
       sodipodi:type="arc"
       style="opacity:0.46842107;fill:url(#linearGradient3955);fill-opacity:1;stroke:#000000;stroke-width:10;stroke-miterlimit:4;stroke-dasharray:none;display:inline"
       id="path3710"
       sodipodi:cx="371.42856"
       sodipodi:cy="372.36218"
       sodipodi:rx="368.57144"
       sodipodi:ry="368.57144"
       d="m 740,372.36218 a 368.57144,368.57144 0 1 1 -737.1428833,0 368.57144,368.57144 0 1 1 737.1428833,0 z"
       transform="translate(-0.7941661,-4.1854297)"
       inkscape:export-filename="C:\Documents and Settings\andres.perez\My Dropbox\Public\hokiegeek.net\shaving\img\path3600.png"
       inkscape:export-xdpi="6.0229449"
       inkscape:export-ydpi="6.0229449" />
  </g>
  <g
     inkscape:groupmode="layer"
     id="layer8"
     inkscape:label="Shine">
    <path
       style="fill:none;stroke:#ffffff;stroke-width:15;stroke-linecap:butt;stroke-linejoin:miter;stroke-miterlimit:4;stroke-opacity:1;stroke-dasharray:none;display:inline;filter:url(#filter3867)"
       d="M 391.52664,44.004705 C 495.86561,64.638025 538.89822,80.517465 622.9552,149.71898"
       id="path3825"
       sodipodi:nodetypes="cc" />
  </g>
  <g
     inkscape:groupmode="layer"
     id="layer2"
     inkscape:label="Eyes"
     sodipodi:insensitive="true">
    <path
       style="fill:#ffffff;fill-opacity:1;stroke:#000000;stroke-width:8;stroke-miterlimit:4;stroke-dasharray:none"
       d="m 292.6875,270.75 c 0.84251,-2.1061 1.63337,-4.22277 2.3125,-6.40625 0.84871,-2.7287 1.57584,-5.50735 2.15625,-8.34375 0.58041,-2.8364 1.01499,-5.72676 1.3125,-8.65625 0.29751,-2.92949 0.46875,-5.89827 0.46875,-8.90625 0,-3.00798 -0.17124,-5.97676 -0.46875,-8.90625 -0.29751,-2.92949 -0.73209,-5.81985 -1.3125,-8.65625 -0.58041,-2.8364 -1.30754,-5.61505 -2.15625,-8.34375 -0.84871,-2.7287 -1.80383,-5.42484 -2.90625,-8.03125 -1.10242,-2.60641 -2.34598,-5.12424 -3.6875,-7.59375 -1.34152,-2.46951 -2.80898,-4.86948 -4.375,-7.1875 -1.56602,-2.31802 -3.22408,-4.56683 -5,-6.71875 -1.77592,-2.15192 -3.65378,-4.21628 -5.625,-6.1875 -1.97122,-1.97122 -4.03558,-3.84908 -6.1875,-5.625 -2.15192,-1.77592 -4.40073,-3.43398 -6.71875,-5 -2.31802,-1.56602 -4.71799,-3.03348 -7.1875,-4.375 -2.46951,-1.34152 -4.98734,-2.58508 -7.59375,-3.6875 -2.60641,-1.10242 -5.30255,-2.05754 -8.03125,-2.90625 -2.7287,-0.84871 -5.50735,-1.57584 -8.34375,-2.15625 -2.8364,-0.58041 -5.72676,-1.01499 -8.65625,-1.3125 -2.92949,-0.29751 -5.89827,-0.46875 -8.90625,-0.46875 -3.00798,0 -5.97676,0.17124 -8.90625,0.46875 -2.92949,0.29751 -5.81985,0.73209 -8.65625,1.3125 -2.8364,0.58041 -5.61505,1.30754 -8.34375,2.15625 -2.7287,0.84871 -5.39359,1.80383 -8,2.90625 -2.60641,1.10242 -5.15549,2.34598 -7.625,3.6875 -2.46951,1.34152 -4.86948,2.80898 -7.1875,4.375 -2.31802,1.56602 -4.56683,3.22408 -6.71875,5 -2.15192,1.77592 -4.21628,3.65378 -6.1875,5.625 -1.97122,1.97122 -3.84908,4.03558 -5.625,6.1875 -1.77592,2.15192 -3.43398,4.40073 -5,6.71875 -1.56602,2.31802 -3.03348,4.71799 -4.375,7.1875 -1.34152,2.46951 -2.55383,4.98734 -3.65625,7.59375 -1.10242,2.60641 -2.08879,5.30255 -2.9375,8.03125 -0.84871,2.7287 -1.57584,5.50735 -2.15625,8.34375 -0.58041,2.8364 -1.01499,5.72676 -1.3125,8.65625 -0.29751,2.92949 -0.4375,5.89827 -0.4375,8.90625 0,3.00798 0.13999,5.97676 0.4375,8.90625 0.29751,2.92949 0.73209,5.81985 1.3125,8.65625 0.58041,2.8364 1.30754,5.61505 2.15625,8.34375 0.67934,2.18415 1.50093,4.29952 2.34375,6.40625 l 161.78125,0 z"
       id="path3638" />
    <path
       sodipodi:type="arc"
       style="fill:#000000;fill-opacity:1;stroke:#000000;stroke-width:4;stroke-miterlimit:4;stroke-dasharray:none"
       id="path3607"
       sodipodi:cx="231.96428"
       sodipodi:cy="214.50504"
       sodipodi:rx="24.821428"
       sodipodi:ry="24.642857"
       d="m 256.78571,214.50504 a 24.821428,24.642857 0 1 1 -49.64286,0 24.821428,24.642857 0 1 1 49.64286,0 z"
       transform="translate(-80,30)" />
  </g>
  <g
     inkscape:label="Eyes copy"
     id="g3649"
     inkscape:groupmode="layer"
     sodipodi:insensitive="true">
    <path
       id="path3653"
       d="m 596.97321,269.32143 c 0.84251,-2.1061 1.63337,-4.22277 2.3125,-6.40625 0.84871,-2.7287 1.57584,-5.50735 2.15625,-8.34375 0.58041,-2.8364 1.01499,-5.72676 1.3125,-8.65625 0.29751,-2.92949 0.46875,-5.89827 0.46875,-8.90625 0,-3.00798 -0.17124,-5.97676 -0.46875,-8.90625 -0.29751,-2.92949 -0.73209,-5.81985 -1.3125,-8.65625 -0.58041,-2.8364 -1.30754,-5.61505 -2.15625,-8.34375 -0.84871,-2.7287 -1.80383,-5.42484 -2.90625,-8.03125 -1.10242,-2.60641 -2.34598,-5.12424 -3.6875,-7.59375 -1.34152,-2.46951 -2.80898,-4.86948 -4.375,-7.1875 -1.56602,-2.31802 -3.22408,-4.56683 -5,-6.71875 -1.77592,-2.15192 -3.65378,-4.21628 -5.625,-6.1875 -1.97122,-1.97122 -4.03558,-3.84908 -6.1875,-5.625 -2.15192,-1.77592 -4.40073,-3.43398 -6.71875,-5 -2.31802,-1.56602 -4.71799,-3.03348 -7.1875,-4.375 -2.46951,-1.34152 -4.98734,-2.58508 -7.59375,-3.6875 -2.60641,-1.10242 -5.30255,-2.05754 -8.03125,-2.90625 -2.7287,-0.84871 -5.50735,-1.57584 -8.34375,-2.15625 -2.8364,-0.58041 -5.72676,-1.01499 -8.65625,-1.3125 -2.92949,-0.29751 -5.89827,-0.46875 -8.90625,-0.46875 -3.00798,0 -5.97676,0.17124 -8.90625,0.46875 -2.92949,0.29751 -5.81985,0.73209 -8.65625,1.3125 -2.8364,0.58041 -5.61505,1.30754 -8.34375,2.15625 -2.7287,0.84871 -5.39359,1.80383 -8,2.90625 -2.60641,1.10242 -5.15549,2.34598 -7.625,3.6875 -2.46951,1.34152 -4.86948,2.80898 -7.1875,4.375 -2.31802,1.56602 -4.56683,3.22408 -6.71875,5 -2.15192,1.77592 -4.21628,3.65378 -6.1875,5.625 -1.97122,1.97122 -3.84908,4.03558 -5.625,6.1875 -1.77592,2.15192 -3.43398,4.40073 -5,6.71875 -1.56602,2.31802 -3.03348,4.71799 -4.375,7.1875 -1.34152,2.46951 -2.55383,4.98734 -3.65625,7.59375 -1.10242,2.60641 -2.08879,5.30255 -2.9375,8.03125 -0.84871,2.7287 -1.57584,5.50735 -2.15625,8.34375 -0.58041,2.8364 -1.01499,5.72676 -1.3125,8.65625 -0.29751,2.92949 -0.4375,5.89827 -0.4375,8.90625 0,3.00798 0.13999,5.97676 0.4375,8.90625 0.29751,2.92949 0.73209,5.81985 1.3125,8.65625 0.58041,2.8364 1.30754,5.61505 2.15625,8.34375 0.67934,2.18415 1.50093,4.29952 2.34375,6.40625 l 161.78125,0 z"
       style="fill:#ffffff;fill-opacity:1;stroke:#000000;stroke-width:8;stroke-miterlimit:4;stroke-dasharray:none" />
    <path
       d="m 256.78571,214.50504 a 24.821428,24.642857 0 1 1 -49.64286,0 24.821428,24.642857 0 1 1 49.64286,0 z"
       sodipodi:ry="24.642857"
       sodipodi:rx="24.821428"
       sodipodi:cy="214.50504"
       sodipodi:cx="231.96428"
       id="path3655"
       style="fill:#000000;fill-opacity:1;stroke:#000000;stroke-width:4;stroke-miterlimit:4;stroke-dasharray:none"
       sodipodi:type="arc"
       transform="translate(224.28571,28.571429)" />
  </g>
  <g
     inkscape:groupmode="layer"
     id="layer5"
     inkscape:label="Tears"
     sodipodi:insensitive="true">
    <path
       style="fill:#68ffff;fill-opacity:1;stroke:none"
       d="m 599.5747,287.46851 c 8.37298,-9.46311 7.82695,-27.31238 -4.35933,-38.56325 -7.01984,-0.56568 -14.16706,-1.36791 -15.08996,9.38931 2.12154,10.31427 5.30121,34.39584 20.11995,28.8386 l -0.67066,0.33534 z"
       id="path3602"
       sodipodi:nodetypes="ccccc" />
    <path
       style="fill:#58ffff;fill-opacity:1;stroke:none"
       d="m 599.23937,253.26458 c -0.2141,-1.03748 -2.06685,0.11376 -4.37136,-3.85031 -9.5428,-0.40829 -6.92945,0.74567 -10.4641,0.84435 -10.53326,6.99918 -9.28871,4.36535 -11.82349,7.36528 l -6.31671,-2.96554 -7.1168,-0.33533 -10.20743,1.28888 -11.73665,3.35333 c -3.95153,-1.37446 -8.37633,-0.42808 -13.07582,-0.27085 -3.68065,1.33564 -1.8358,-1.30468 -2.4002,0.92131 0,0 -9.16424,2.25676 -8.373,1.17366 0.55378,-0.75804 -1.81911,0.46402 -5.35328,1.55328 -3.68866,2.23555 -7.02231,2.76167 -13.72027,1.98792 l -4.77548,0.36155 c -2.5556,0.54664 -3.71529,1.33362 -5.2845,1.65044 l 99.92912,0.33534 15.08997,-13.41331 z"
       id="path3608"
       sodipodi:nodetypes="ccccccccccscccccc" />
  </g>
  <g
     inkscape:groupmode="layer"
     id="layer4"
     inkscape:label="Beard"
     style="display:inline"
     sodipodi:insensitive="true">
    <path
       style="fill:#666666;fill-opacity:0.13636367;stroke:none"
       d="M 739.75426,355.20521 C 739.91762,359.71354 740,364.24252 740,368.79075 l 0,0 c 0,203.55639 -165.01506,368.57144 -368.57144,368.57144 -203.55639,0 -368.5714433,-165.01505 -368.5714433,-368.57144 0,-4.54804 0.082376,-9.07684 0.2457184,-13.58499"
       id="path4203"
       inkscape:export-xdpi="5.8477631"
       inkscape:export-ydpi="5.8477631" />
  </g>
  <g
     inkscape:groupmode="layer"
     id="layer3"
     inkscape:label="Mouth"
     sodipodi:insensitive="true">
    <path
       style="fill:none;stroke:#000000;stroke-width:8;stroke-linecap:butt;stroke-linejoin:miter;stroke-miterlimit:4;stroke-opacity:1;stroke-dasharray:none"
       d="M 182.85714,543.79075 C 338.68945,491.04053 491.1596,443.59218 550,543.79075"
       id="path3597"
       sodipodi:nodetypes="cc" />
  </g>
  <g
     inkscape:groupmode="layer"
     id="layer6"
     inkscape:label="Pain"
     style="display:inline">
    <path
       style="fill:url(#radialGradient3629);fill-opacity:1;stroke:none;filter:url(#filter3647)"
       d="M 141.8125 401.3125 C 83.042743 401.3125 35.40625 438.97509 35.40625 485.40625 C 35.40625 531.83741 83.042743 569.46875 141.8125 569.46875 C 200.58226 569.46875 248.25 531.83741 248.25 485.40625 C 248.25 438.97509 200.58226 401.3125 141.8125 401.3125 z "
       id="path3613" />
    <path
       d="m 171.14177,452.65878 a 43.139042,41.017448 0 1 1 -86.278081,0 43.139042,41.017448 0 1 1 86.278081,0 z"
       sodipodi:ry="41.017448"
       sodipodi:rx="43.139042"
       sodipodi:cy="452.65878"
       sodipodi:cx="128.00273"
       id="path3631"
       style="fill:url(#radialGradient3633);fill-opacity:1;stroke:none;filter:url(#filter3651)"
       sodipodi:type="arc"
       transform="matrix(1.2497084,0,0,1.3056377,476.34944,-165.06095)" />
    <path
       transform="matrix(2.0095491,0,0,1.6545049,238.33428,-130.21871)"
       sodipodi:type="arc"
       style="fill:url(#radialGradient3637);fill-opacity:1;stroke:none;filter:url(#filter3643)"
       id="path3635"
       sodipodi:cx="128.00273"
       sodipodi:cy="452.65878"
       sodipodi:rx="43.139042"
       sodipodi:ry="41.017448"
       d="m 171.14177,452.65878 a 43.139042,41.017448 0 1 1 -86.278081,0 43.139042,41.017448 0 1 1 86.278081,0 z" />
    <path
       style="fill:none;stroke:#ac0000;stroke-width:2.47705889px;stroke-linecap:butt;stroke-linejoin:miter;stroke-opacity:0.1168831"
       d="m 124.26918,501.50559 c 1.94031,-1.61474 3.88062,-3.22945 5.8209,-4.84417 1.61693,-1.93767 2.96301,-4.1373 4.85075,-5.813 1.0809,-0.95951 2.58706,-1.29178 3.88059,-1.93768 0.64677,-0.32294 1.42899,-0.45819 1.94031,-0.96881 0.22878,-0.22823 -0.14476,-0.67999 0,-0.96884 2.01876,-4.03205 -0.0669,1.03572 1.94028,-0.96884 0.45735,-0.45671 -0.64675,-1.93768 0,-1.93768 0.3234,0 0,0.6459 0,0.96884 0,0.6459 0,1.29178 0,1.93768"
       id="path3656" />
    <path
       d="m 171.14177,452.65878 a 43.139042,41.017448 0 1 1 -86.278081,0 43.139042,41.017448 0 1 1 86.278081,0 z"
       sodipodi:ry="41.017448"
       sodipodi:rx="43.139042"
       sodipodi:cy="452.65878"
       sodipodi:cx="128.00273"
       id="path4345"
       style="fill:url(#radialGradient4347);fill-opacity:1;stroke:none;filter:url(#filter3643)"
       sodipodi:type="arc"
       transform="matrix(2.5561599,0,0,2.1154614,47.572163,-520.70166)" />
    <path
       style="fill:#a20000;fill-opacity:1;stroke:#a40000;stroke-width:1.11295116;stroke-linecap:butt;stroke-linejoin:miter;stroke-miterlimit:4;stroke-opacity:1;stroke-dasharray:none;display:inline"
       d="m 124.64668,502.99406 c -1.48384,7.27995 -4.55133,10.86476 -4.44649,21.85168 2.74738,6.5744 4.45409,2.55405 6.31561,0.70825 1.60649,-7.51999 -1.11462,-15.03995 -1.86912,-22.55993 z"
       id="path3658"
       sodipodi:nodetypes="cccc" />
  </g>
  <g
     inkscape:groupmode="layer"
     id="layer10"
     inkscape:label="Overlay"
     style="display:none"
     sodipodi:insensitive="true">
    <path
       inkscape:export-filename="C:\Documents and Settings\andres.perez\My Dropbox\Public\hokiegeek.net\shaving\img\shave_grade_meh_dark.png"
       inkscape:export-ydpi="6.0229449"
       inkscape:export-xdpi="6.0229449"
       transform="translate(4.1349509e-8,-3.571428)"
       d="m 740,372.36218 a 368.57144,368.57144 0 1 1 -737.1428833,0 368.57144,368.57144 0 1 1 737.1428833,0 z"
       sodipodi:ry="368.57144"
       sodipodi:rx="368.57144"
       sodipodi:cy="372.36218"
       sodipodi:cx="371.42856"
       id="path4877"
       style="fill:#000000;fill-opacity:0.4627451;stroke:#000000;stroke-width:10;stroke-linecap:round;stroke-linejoin:round;stroke-miterlimit:4;stroke-dasharray:none"
       sodipodi:type="arc" />
  </g>
</svg>
