<?xml version="1.0" encoding="UTF-8" standalone="no"?>
<!-- Created with Inkscape (http://www.inkscape.org/) -->

<svg
   xmlns:dc="http://purl.org/dc/elements/1.1/"
   xmlns:cc="http://creativecommons.org/ns#"
   xmlns:rdf="http://www.w3.org/1999/02/22-rdf-syntax-ns#"
   xmlns:svg="http://www.w3.org/2000/svg"
   xmlns="http://www.w3.org/2000/svg"
   xmlns:sodipodi="http://sodipodi.sourceforge.net/DTD/sodipodi-0.dtd"
   xmlns:inkscape="http://www.inkscape.org/namespaces/inkscape"
   width="744.09448"
   height="1052.3622"
   id="svg2"
   version="1.1"
   inkscape:version="0.47 r22583"
   sodipodi:docname="shave_grade_bbs.svg"
   inkscape:export-filename="C:\Documents and Settings\andres.perez\My Dropbox\Public\hokiegeek.net\img\shaving_grade_bbs.png"
   inkscape:export-xdpi="6.0229449"
   inkscape:export-ydpi="6.0229449">
  <defs
     id="defs4">
    <inkscape:perspective
       sodipodi:type="inkscape:persp3d"
       inkscape:vp_x="0 : 526.18109 : 1"
       inkscape:vp_y="0 : 1000 : 0"
       inkscape:vp_z="744.09448 : 526.18109 : 1"
       inkscape:persp3d-origin="372.04724 : 350.78739 : 1"
       id="perspective10" />
    <filter
       inkscape:collect="always"
       id="filter3628">
      <feGaussianBlur
         inkscape:collect="always"
         stdDeviation="3.1118406"
         id="feGaussianBlur3630" />
    </filter>
  </defs>
  <sodipodi:namedview
     id="base"
     pagecolor="#ffffff"
     bordercolor="#666666"
     borderopacity="1.0"
     inkscape:pageopacity="0.0"
     inkscape:pageshadow="2"
     inkscape:zoom="0.7"
     inkscape:cx="251.8211"
     inkscape:cy="677.6383"
     inkscape:document-units="px"
     inkscape:current-layer="layer6"
     showgrid="false"
     inkscape:window-width="1174"
     inkscape:window-height="769"
     inkscape:window-x="44"
     inkscape:window-y="-1"
     inkscape:window-maximized="0" />
  <metadata
     id="metadata7">
    <rdf:RDF>
      <cc:Work
         rdf:about="">
        <dc:format>image/svg+xml</dc:format>
        <dc:type
           rdf:resource="http://purl.org/dc/dcmitype/StillImage" />
        <dc:title></dc:title>
      </cc:Work>
    </rdf:RDF>
  </metadata>
  <g
     inkscape:label="Layer 1"
     inkscape:groupmode="layer"
     id="layer1">
    <path
       sodipodi:type="arc"
       style="fill:#ffe7a2;fill-opacity:1;stroke:#000000;stroke-width:10;stroke-miterlimit:4;stroke-dasharray:none"
       id="path3600"
       sodipodi:cx="371.42856"
       sodipodi:cy="372.36218"
       sodipodi:rx="368.57144"
       sodipodi:ry="368.57144"
       d="m 740,372.36218 a 368.57144,368.57144 0 1 1 -737.1428833,0 368.57144,368.57144 0 1 1 737.1428833,0 z"
       transform="translate(4.1349509e-8,-3.571428)"
       inkscape:export-filename="C:\Documents and Settings\andres.perez\My Dropbox\Public\hokiegeek.net\shaving\img\path3600.png"
       inkscape:export-xdpi="6.0229449"
       inkscape:export-ydpi="6.0229449" />
  </g>
  <g
     inkscape:groupmode="layer"
     id="layer2"
     inkscape:label="Eyes">
    <path
       style="fill:#ffffff;fill-opacity:1;stroke:#000000;stroke-width:8;stroke-miterlimit:4;stroke-dasharray:none"
       d="m 292.6875,270.75 c 0.84251,-2.1061 1.63337,-4.22277 2.3125,-6.40625 0.84871,-2.7287 1.57584,-5.50735 2.15625,-8.34375 0.58041,-2.8364 1.01499,-5.72676 1.3125,-8.65625 0.29751,-2.92949 0.46875,-5.89827 0.46875,-8.90625 0,-3.00798 -0.17124,-5.97676 -0.46875,-8.90625 -0.29751,-2.92949 -0.73209,-5.81985 -1.3125,-8.65625 -0.58041,-2.8364 -1.30754,-5.61505 -2.15625,-8.34375 -0.84871,-2.7287 -1.80383,-5.42484 -2.90625,-8.03125 -1.10242,-2.60641 -2.34598,-5.12424 -3.6875,-7.59375 -1.34152,-2.46951 -2.80898,-4.86948 -4.375,-7.1875 -1.56602,-2.31802 -3.22408,-4.56683 -5,-6.71875 -1.77592,-2.15192 -3.65378,-4.21628 -5.625,-6.1875 -1.97122,-1.97122 -4.03558,-3.84908 -6.1875,-5.625 -2.15192,-1.77592 -4.40073,-3.43398 -6.71875,-5 -2.31802,-1.56602 -4.71799,-3.03348 -7.1875,-4.375 -2.46951,-1.34152 -4.98734,-2.58508 -7.59375,-3.6875 -2.60641,-1.10242 -5.30255,-2.05754 -8.03125,-2.90625 -2.7287,-0.84871 -5.50735,-1.57584 -8.34375,-2.15625 -2.8364,-0.58041 -5.72676,-1.01499 -8.65625,-1.3125 -2.92949,-0.29751 -5.89827,-0.46875 -8.90625,-0.46875 -3.00798,0 -5.97676,0.17124 -8.90625,0.46875 -2.92949,0.29751 -5.81985,0.73209 -8.65625,1.3125 -2.8364,0.58041 -5.61505,1.30754 -8.34375,2.15625 -2.7287,0.84871 -5.39359,1.80383 -8,2.90625 -2.60641,1.10242 -5.15549,2.34598 -7.625,3.6875 -2.46951,1.34152 -4.86948,2.80898 -7.1875,4.375 -2.31802,1.56602 -4.56683,3.22408 -6.71875,5 -2.15192,1.77592 -4.21628,3.65378 -6.1875,5.625 -1.97122,1.97122 -3.84908,4.03558 -5.625,6.1875 -1.77592,2.15192 -3.43398,4.40073 -5,6.71875 -1.56602,2.31802 -3.03348,4.71799 -4.375,7.1875 -1.34152,2.46951 -2.55383,4.98734 -3.65625,7.59375 -1.10242,2.60641 -2.08879,5.30255 -2.9375,8.03125 -0.84871,2.7287 -1.57584,5.50735 -2.15625,8.34375 -0.58041,2.8364 -1.01499,5.72676 -1.3125,8.65625 -0.29751,2.92949 -0.4375,5.89827 -0.4375,8.90625 0,3.00798 0.13999,5.97676 0.4375,8.90625 0.29751,2.92949 0.73209,5.81985 1.3125,8.65625 0.58041,2.8364 1.30754,5.61505 2.15625,8.34375 0.67934,2.18415 1.50093,4.29952 2.34375,6.40625 l 161.78125,0 z"
       id="path3638" />
    <path
       sodipodi:type="arc"
       style="fill:#000000;fill-opacity:1;stroke:#000000;stroke-width:4;stroke-miterlimit:4;stroke-dasharray:none"
       id="path3607"
       sodipodi:cx="231.96428"
       sodipodi:cy="214.50504"
       sodipodi:rx="24.821428"
       sodipodi:ry="24.642857"
       d="m 256.78571,214.50504 a 24.821428,24.642857 0 1 1 -49.64286,0 24.821428,24.642857 0 1 1 49.64286,0 z" />
  </g>
  <g
     inkscape:label="Eyes copy"
     id="g3649"
     inkscape:groupmode="layer">
    <path
       id="path3653"
       d="m 596.97321,269.32143 c 0.84251,-2.1061 1.63337,-4.22277 2.3125,-6.40625 0.84871,-2.7287 1.57584,-5.50735 2.15625,-8.34375 0.58041,-2.8364 1.01499,-5.72676 1.3125,-8.65625 0.29751,-2.92949 0.46875,-5.89827 0.46875,-8.90625 0,-3.00798 -0.17124,-5.97676 -0.46875,-8.90625 -0.29751,-2.92949 -0.73209,-5.81985 -1.3125,-8.65625 -0.58041,-2.8364 -1.30754,-5.61505 -2.15625,-8.34375 -0.84871,-2.7287 -1.80383,-5.42484 -2.90625,-8.03125 -1.10242,-2.60641 -2.34598,-5.12424 -3.6875,-7.59375 -1.34152,-2.46951 -2.80898,-4.86948 -4.375,-7.1875 -1.56602,-2.31802 -3.22408,-4.56683 -5,-6.71875 -1.77592,-2.15192 -3.65378,-4.21628 -5.625,-6.1875 -1.97122,-1.97122 -4.03558,-3.84908 -6.1875,-5.625 -2.15192,-1.77592 -4.40073,-3.43398 -6.71875,-5 -2.31802,-1.56602 -4.71799,-3.03348 -7.1875,-4.375 -2.46951,-1.34152 -4.98734,-2.58508 -7.59375,-3.6875 -2.60641,-1.10242 -5.30255,-2.05754 -8.03125,-2.90625 -2.7287,-0.84871 -5.50735,-1.57584 -8.34375,-2.15625 -2.8364,-0.58041 -5.72676,-1.01499 -8.65625,-1.3125 -2.92949,-0.29751 -5.89827,-0.46875 -8.90625,-0.46875 -3.00798,0 -5.97676,0.17124 -8.90625,0.46875 -2.92949,0.29751 -5.81985,0.73209 -8.65625,1.3125 -2.8364,0.58041 -5.61505,1.30754 -8.34375,2.15625 -2.7287,0.84871 -5.39359,1.80383 -8,2.90625 -2.60641,1.10242 -5.15549,2.34598 -7.625,3.6875 -2.46951,1.34152 -4.86948,2.80898 -7.1875,4.375 -2.31802,1.56602 -4.56683,3.22408 -6.71875,5 -2.15192,1.77592 -4.21628,3.65378 -6.1875,5.625 -1.97122,1.97122 -3.84908,4.03558 -5.625,6.1875 -1.77592,2.15192 -3.43398,4.40073 -5,6.71875 -1.56602,2.31802 -3.03348,4.71799 -4.375,7.1875 -1.34152,2.46951 -2.55383,4.98734 -3.65625,7.59375 -1.10242,2.60641 -2.08879,5.30255 -2.9375,8.03125 -0.84871,2.7287 -1.57584,5.50735 -2.15625,8.34375 -0.58041,2.8364 -1.01499,5.72676 -1.3125,8.65625 -0.29751,2.92949 -0.4375,5.89827 -0.4375,8.90625 0,3.00798 0.13999,5.97676 0.4375,8.90625 0.29751,2.92949 0.73209,5.81985 1.3125,8.65625 0.58041,2.8364 1.30754,5.61505 2.15625,8.34375 0.67934,2.18415 1.50093,4.29952 2.34375,6.40625 l 161.78125,0 z"
       style="fill:#ffffff;fill-opacity:1;stroke:#000000;stroke-width:8;stroke-miterlimit:4;stroke-dasharray:none" />
    <path
       d="m 256.78571,214.50504 a 24.821428,24.642857 0 1 1 -49.64286,0 24.821428,24.642857 0 1 1 49.64286,0 z"
       sodipodi:ry="24.642857"
       sodipodi:rx="24.821428"
       sodipodi:cy="214.50504"
       sodipodi:cx="231.96428"
       id="path3655"
       style="fill:#000000;fill-opacity:1;stroke:#000000;stroke-width:4;stroke-miterlimit:4;stroke-dasharray:none"
       sodipodi:type="arc"
       transform="translate(304.28571,-1.4285714)" />
  </g>
  <g
     inkscape:groupmode="layer"
     id="layer4"
     inkscape:label="Beard">
    <path
       style="fill:#800000;fill-opacity:0.02906977;stroke:none"
       d="M 739.75426,355.20521 C 739.91762,359.71354 740,364.24252 740,368.79075 l 0,0 c 0,203.55639 -165.01506,368.57144 -368.57144,368.57144 -203.55639,0 -368.5714433,-165.01505 -368.5714433,-368.57144 0,-4.54804 0.082376,-9.07684 0.2457184,-13.58499"
       id="path4203" />
    <path
       sodipodi:type="star"
       style="fill:#ffffff;fill-opacity:1;stroke:none;filter:url(#filter3628)"
       id="path3610"
       sodipodi:sides="5"
       sodipodi:cx="674.28571"
       sodipodi:cy="378.07648"
       sodipodi:r1="53.547615"
       sodipodi:r2="8.4764109"
       sodipodi:arg1="0.80426385"
       sodipodi:arg2="1.4012024"
       inkscape:flatsided="false"
       inkscape:rounded="0"
       inkscape:randomized="0"
       d="m 711.42856,416.64791 -35.71219,-30.21663 -26.6365,38.88938 17.70205,-43.30176 -45.21714,-13.31534 46.65266,3.45466 -1.30922,-47.11871 11.13088,45.43686 44.40799,-15.80562 -39.77339,24.62686 28.75486,37.3503 z"
       transform="matrix(1.7221994,0,0,1.8262484,-511.75087,-289.99195)" />
  </g>
  <g
     inkscape:groupmode="layer"
     id="layer5"
     inkscape:label="Mouth">
    <path
       style="fill:#000000;fill-opacity:1;stroke:none"
       d="m 181.42857,459.50504 c 57.28419,226.5401 319.05489,231.81643 401.42857,0 l -401.42857,0 z"
       id="path3608"
       sodipodi:nodetypes="ccc" />
  </g>
  <g
     inkscape:groupmode="layer"
     id="layer3"
     inkscape:label="Twinkle" />
  <g
     inkscape:groupmode="layer"
     id="layer6"
     inkscape:label="Overlay"
     style="display:inline">
    <path
       inkscape:export-ydpi="6.0229449"
       inkscape:export-xdpi="6.0229449"
       inkscape:export-filename="C:\Documents and Settings\andres.perez\My Dropbox\Public\hokiegeek.net\shaving\img\shave_grade_bbs_dark.png"
       transform="translate(4.1349509e-8,-3.571428)"
       d="m 740,372.36218 a 368.57144,368.57144 0 1 1 -737.1428833,0 368.57144,368.57144 0 1 1 737.1428833,0 z"
       sodipodi:ry="368.57144"
       sodipodi:rx="368.57144"
       sodipodi:cy="372.36218"
       sodipodi:cx="371.42856"
       id="path2841"
       style="fill:#000000;fill-opacity:0.46103893;stroke:#000000;stroke-width:10;stroke-miterlimit:4;stroke-dasharray:none"
       sodipodi:type="arc" />
  </g>
</svg>
